<?xml version="1.0" encoding="UTF-8"?>
<svg width="1440px" height="171px" viewBox="0 0 1440 171" version="1.1" xmlns="http://www.w3.org/2000/svg" xmlns:xlink="http://www.w3.org/1999/xlink">
    <!-- Generator: Sketch 51.3 (57544) - http://www.bohemiancoding.com/sketch -->
    <title>header_shape</title>
    <desc>Created with Sketch.</desc>
    <defs>
        <path d="M0,121 C56.7589439,121 156.758944,121 300,121 C514.861584,121 627.710473,170.457862 720,170.457862 C812.289527,170.457862 945.403522,121 1140,121 C1269.73099,121 1369.73099,121 1440,121 L1440,0 L0,0 L0,121 Z" id="path-1"></path>
        <path d="M1319.94092,86.8401892 L1327.84776,89.5213598 L1328.92086,81.2619409 L1330,73 L1321.01956,78.5817791 L1312.03559,84.1610358 L1319.94092,86.8401892 Z M1303.31423,149.54579 L1308.78405,151.399152 L1314.25538,153.255037 L1314.99782,147.540082 L1315.7438,141.82311 L1303.31423,149.54579 Z M1239.70569,270.559669 L1236,281.509844 L1241.70974,282.253408 L1247.4225,283 L1239.70569,270.559669 Z" id="path-3"></path>
        <path d="M1175.05036,250 L1174.07997,238.513693 L1168.54175,240.108608 L1163,241.701008 M1182,41.6973264 L1176.52385,39.8494177 L1171.04619,38 L1170.30288,43.6976348 L1169.55604,49.3982875" id="path-4"></path>
        <polygon id="path-5" points="1399.69135 214.252441 1402 206.504395 1394.00122 205.754395 1386 205 1391.69402 213.497559 1397.3861 222"></polygon>
        <polygon id="path-6" points="1300.80249 268.900221 1293.60547 265 1291.30519 272.99899 1289 281 1298.4973 276.897695 1308 272.797916"></polygon>
        <path d="M1278,166 C1278,170.418526 1274.41775,174 1270.0005,174 C1265.58175,174 1262,170.418526 1262,166 C1262,161.581474 1265.58175,158 1270.0005,158 C1274.41775,158 1278,161.581474 1278,166 Z" id="path-7"></path>
        <path d="M1438,300.742391 C1438,305.160589 1434.41779,308.741797 1429.99998,308.741797 C1425.58116,308.741797 1421.99895,305.160589 1421.99895,300.742391 C1421.99895,296.324194 1425.58116,292.742985 1429.99998,292.742985 C1434.41779,292.742985 1438,296.324194 1438,300.742391 Z M1379.1391,176.258203 C1379.1391,179.161777 1376.78314,181.515904 1373.88067,181.515904 C1370.97568,181.515904 1368.62123,179.161777 1368.62123,176.258203 C1368.62123,173.354629 1370.97568,171 1373.88067,171 C1376.78314,171 1379.1391,173.354629 1379.1391,176.258203 Z M1267.51737,308.7423 C1267.51737,311.645873 1265.16242,314 1262.25894,314 C1259.35446,314 1257,311.645873 1257,308.7423 C1257,305.838726 1259.35446,303.484096 1262.25894,303.484096 C1265.16242,303.484096 1267.51737,305.838726 1267.51737,308.7423 Z" id="path-8"></path>
        <path d="M1270,244.500263 C1270,247.537502 1267.53645,250 1264.50026,250 C1261.46197,250 1259,247.537502 1259,244.500263 C1259,241.462498 1261.46197,239 1264.50026,239 C1267.53645,239 1270,241.462498 1270,244.500263 Z" id="path-9"></path>
        <path d="M1434,230.732335 C1434,233.641915 1431.63912,236 1428.72835,236 C1425.81607,236 1423.4567,233.641915 1423.4567,230.732335 C1423.4567,227.823258 1425.81607,225.464166 1428.72835,225.464166 C1431.63912,225.464166 1434,227.823258 1434,230.732335 Z M1232.5438,35.2681687 C1232.5438,38.1772453 1230.18242,40.5358337 1227.27215,40.5358337 C1224.35987,40.5358337 1222,38.1772453 1222,35.2681687 C1222,32.3585883 1224.35987,30 1227.27215,30 C1230.18242,30 1232.5438,32.3585883 1232.5438,35.2681687 Z" id="path-10"></path>
        <path d="M1206,130.500263 C1206,133.538028 1203.53698,136 1200.50026,136 C1197.4625,136 1195,133.538028 1195,130.500263 C1195,127.463024 1197.4625,125 1200.50026,125 C1203.53698,125 1206,127.463024 1206,130.500263 Z" id="path-11"></path>
        <path d="M1429,70.7166287 C1429,73.6296222 1426.64408,75.9913861 1423.74167,75.9913861 C1420.83674,75.9913861 1418.48233,73.6296222 1418.48233,70.7166287 C1418.48233,67.8031308 1420.83674,65.4413669 1423.74167,65.4413669 C1426.64408,65.4413669 1429,67.8031308 1429,70.7166287 Z M1357.90869,107.463416 C1357.90869,110.37641 1355.55328,112.738174 1352.65036,112.738174 C1349.74593,112.738174 1347.39102,110.37641 1347.39102,107.463416 C1347.39102,104.550422 1349.74593,102.188154 1352.65036,102.188154 C1355.55328,102.188154 1357.90869,104.550422 1357.90869,107.463416 Z M1316.51573,207.450304 C1316.50014,207.413992 1316.48958,207.376672 1316.47249,207.34036 C1314.6686,203.294144 1309.93565,201.482096 1305.90303,203.292127 C1301.86891,205.101652 1300.06251,209.848883 1301.8664,213.8951 C1301.88299,213.930907 1301.9036,213.964193 1301.92019,214 L1316.51573,207.450304 Z M1176.76796,206.649936 C1176.775,206.611608 1176.78606,206.573783 1176.7931,206.534445 C1177.52612,202.163443 1174.587,198.023925 1170.22961,197.289121 C1165.87222,196.553812 1161.74659,199.501604 1161.01257,203.872607 C1161.00654,203.91144 1161.00553,203.950778 1161,203.989611 L1176.76796,206.649936 Z M1276.90503,39 C1276.89799,39.0383289 1276.88593,39.075649 1276.87939,39.1149866 C1276.10364,43.4789292 1279.00253,47.6461843 1283.35188,48.4238567 C1287.70223,49.2015291 1291.85651,46.2950919 1292.63277,41.9311492 C1292.63931,41.8918117 1292.64031,41.8534829 1292.64685,41.8141454 L1276.90503,39 Z" id="path-12"></path>
        <path d="M1337,182.710863 C1336.99394,182.6734 1336.99394,182.635937 1336.98788,182.597988 C1336.33126,178.368559 1332.23901,175.453741 1327.85028,176.086234 C1323.45902,176.718726 1320.43251,180.659155 1321.08964,184.88907 C1321.0957,184.92702 1321.10631,184.963023 1321.11237,185" id="path-13"></path>
        <polygon id="path-14" points="1242.31528 112 1257 117.314651 1251.68472 132 1237 126.685842"></polygon>
        <polygon id="path-15" points="1417.31577 140 1432 145.31465 1426.68522 160 1412 154.685843"></polygon>
        <polygon id="path-16" points="1368.84057 243 1378 246.840216 1374.15943 256 1365 252.159784"></polygon>
        <polygon id="path-17" points="1257 202.913403 1266.0866 198 1271 207.086068 1261.91393 212"></polygon>
        <path d="M1421.67536,187.996549 L1430.32362,183.299223 L1435,191.986218 L1426.35275,196.684049 L1421.67536,187.996549 Z M1161.68907,144 L1170.80231,147.70509 L1167.11323,156.859138 L1158,153.154553 L1161.68907,144 Z M1183.38722,274.313006 L1192.03498,269.61568 L1196.71136,278.302169 L1188.06411,283 L1183.38722,274.313006 Z" id="path-18"></path>
        <path d="M1204.88832,160.966224 C1208.27584,160.147482 1209.17763,166.155369 1213.49975,165.110734 M1190.63896,164.410857 C1194.02596,163.591623 1194.92876,169.599509 1199.24937,168.554874 M1204.88832,160.966224 C1201.50182,161.784966 1203.57048,167.510238 1199.24937,168.554874 M1190.63896,164.410857 C1187.25195,165.229106 1189.32263,170.955365 1185,172 M1233.38807,154.076957 C1236.77508,153.258216 1237.67737,159.265609 1242,158.221467 M1219.1382,157.521098 C1222.52571,156.702356 1223.428,162.710242 1227.74962,161.665607 M1233.38807,154.076957 C1230.00106,154.895206 1232.07073,160.620971 1227.74962,161.665607 M1219.1382,157.521098 C1215.75169,158.339839 1217.82237,164.066098 1213.49975,165.110734" id="path-19"></path>
        <polyline id="path-20" points="1312 242.442379 1319.79216 237 1324.99974 244.721189 1332.79293 239.2783 1338 247"></polyline>
        <path d="M1317,45.4929152 L1320.05396,36.6650372 L1328.65903,39.827878 L1331.71199,31 L1340.31806,34.1628408 M1349.1522,291 L1353.16021,282.561062 L1361.36503,286.65122 L1365.37204,278.212785 L1373.57685,282.30244 L1377.58386,273.864005 L1385.78868,277.954162 L1389.79568,269.515224 L1398,273.605382" id="path-21"></path>
        <path d="M1392,125.724325 L1388.24302,134.285086 L1379.90889,130.439239 L1376.1514,139 L1367.81728,135.154657 M1389.58591,119.545694 L1365.69456,128.862734 M1164,104.135116 L1165.24157,94.8704416 L1174.3152,96.2646748 L1175.55677,87 L1184.6304,88.3937295 M1168.03121,109.405407 L1188.41208,93.8543489" id="path-22"></path>
        <path d="M1226.04876,219.60253 C1229.43928,220.30128 1227.61928,226.210768 1231.9466,227.102416 M1211.78232,216.663861 C1215.17334,217.362109 1213.35284,223.271597 1217.67966,224.162742 M1226.04876,219.60253 C1222.65773,218.904282 1222.00598,225.054389 1217.67966,224.162742 M1211.78232,216.663861 C1208.39129,215.96511 1207.74054,222.115218 1203.41322,221.224072 M1202,228.121155 L1230.53288,234 M1288.95225,116.396968 C1285.56172,115.69872 1287.38172,109.789232 1283.0539,108.897082 M1303.21869,119.336642 C1299.82716,118.637892 1301.64716,112.728404 1297.32084,111.836756 M1288.95225,116.396968 C1292.34327,117.095718 1292.99502,110.946113 1297.32084,111.836756 M1303.21869,119.336642 C1306.60871,120.03489 1307.25946,113.88428 1311.58728,114.77643 M1313,107.878846 L1284.46762,102" id="path-23"></path>
        <path d="M1343.14683,219.089389 L1362.04607,219.089389 M1215.73054,89.341104 L1234.62928,89.341104 M1210.94472,187.875125 L1229.84397,187.875125 M1202,249.838062 L1216.95768,261.381321 M1340.47016,56 L1355.42784,67.5432592 M1426,255.556394 L1418.75587,273 M1348.95351,139.982013 L1337.34016,154.882461" id="path-24"></path>
        <linearGradient x1="-10.2749705%" y1="31.8926892%" x2="113.215749%" y2="64.1797578%" id="linearGradient-25">
            <stop stop-color="#50B4FA" offset="0%"></stop>
            <stop stop-color="#7D6AE8" offset="100%"></stop>
        </linearGradient>
    </defs>
    <g id="Page-1" stroke="none" stroke-width="1" fill="none" fill-rule="evenodd">
        <g id="header_shape">
            <g id="Group">
                <mask id="mask-2" fill="white">
                    <use xlink:href="#path-1"></use>
                </mask>
                <use id="Mask" fill="#18181F" fill-rule="nonzero" xlink:href="#path-1"></use>
                <g mask="url(#mask-2)">
                    <g transform="translate(0.000000, -123.000000)">
                        <g id="Group-2" stroke-width="1" fill="none">
                            <path d="M161.94092,73.8401892 L169.847759,76.5213598 L170.920855,68.2619409 L172,60 L163.019561,65.5817791 L154.035594,71.1610358 L161.94092,73.8401892 Z M145.31423,136.54579 L150.784047,138.399152 L156.255376,140.255037 L156.997823,134.540082 L157.743799,128.82311 L145.31423,136.54579 Z M81.705685,257.559669 L78,268.509844 L83.709739,269.253408 L89.4225018,270 L81.705685,257.559669 Z" id="Stroke-3" stroke="#D0D0D0" stroke-width="2"></path>
                            <path d="M17.0503559,238 L16.0799692,226.513693 L10.5417508,228.108608 L5,229.701008 M24,29.6973264 L18.52385,27.8494177 L13.0461861,26 L12.302879,31.6976348 L11.5560395,37.3982875" id="Stroke-4" stroke="#D0D0D0" stroke-width="2"></path>
                            <polygon id="Stroke-5" stroke="#D0D0D0" stroke-width="2" points="241.691349 201.252441 244 193.504395 236.001216 192.754395 228 192 233.694024 200.497559 239.386103 209"></polygon>
                            <polygon id="Stroke-6" stroke="#D0D0D0" stroke-width="2" points="142.802487 256.900221 135.605465 253 133.305189 260.99899 131 269 140.497299 264.897695 150 260.797916"></polygon>
                            <polygon id="Stroke-7" stroke="#D0D0D0" stroke-width="2" points="18.0253868 289.66363 11.0507736 285 8.02839114 292.998959 5 301 14.9974963 297.660507 25 294.324658"></polygon>
                            <path d="M120,153 C120,157.418526 116.417746,161 112.000503,161 C107.581752,161 104,157.418526 104,153 C104,148.581474 107.581752,145 112.000503,145 C116.417746,145 120,148.581474 120,153 Z" id="Stroke-8" stroke="#D0D0D0" stroke-width="2"></path>
                            <path d="M279,288.742391 C279,293.160589 275.417788,296.741797 270.999978,296.741797 C266.581162,296.741797 262.99895,293.160589 262.99895,288.742391 C262.99895,284.324194 266.581162,280.742985 270.999978,280.742985 C275.417788,280.742985 279,284.324194 279,288.742391 Z M220.139103,164.258203 C220.139103,167.161777 217.783138,169.515904 214.880666,169.515904 C211.975681,169.515904 209.621225,167.161777 209.621225,164.258203 C209.621225,161.354629 211.975681,159 214.880666,159 C217.783138,159 220.139103,161.354629 220.139103,164.258203 Z M108.517374,296.7423 C108.517374,299.645873 106.162416,302 103.258939,302 C100.354456,302 98,299.645873 98,296.7423 C98,293.838726 100.354456,291.484096 103.258939,291.484096 C106.162416,291.484096 108.517374,293.838726 108.517374,296.7423 Z" id="Stroke-9" stroke="#D0D0D0" stroke-width="2"></path>
                            <path d="M112,231.500263 C112,234.537502 109.53645,237 106.500263,237 C103.461973,237 101,234.537502 101,231.500263 C101,228.462498 103.461973,226 106.500263,226 C109.53645,226 112,228.462498 112,231.500263 Z" id="Stroke-10" stroke="#D0D0D0" stroke-width="2"></path>
                            <path d="M276,217.732335 C276,220.641915 273.639124,223 270.728352,223 C267.816067,223 265.456704,220.641915 265.456704,217.732335 C265.456704,214.823258 267.816067,212.464166 270.728352,212.464166 C273.639124,212.464166 276,214.823258 276,217.732335 Z M74.5438005,22.2681687 C74.5438005,25.1772453 72.1824207,27.5358337 69.2721522,27.5358337 C66.3598677,27.5358337 64,25.1772453 64,22.2681687 C64,19.3585883 66.3598677,17 69.2721522,17 C72.1824207,17 74.5438005,19.3585883 74.5438005,22.2681687 Z" id="Stroke-12" stroke="#D0D0D0" stroke-width="2"></path>
                            <path d="M271,57.7166287 C271,60.6296222 268.644082,62.9913861 265.741668,62.9913861 C262.836739,62.9913861 260.48233,60.6296222 260.48233,57.7166287 C260.48233,54.8031308 262.836739,52.4413669 265.741668,52.4413669 C268.644082,52.4413669 271,54.8031308 271,57.7166287 Z M199.908691,94.4634159 C199.908691,97.3764098 197.553276,99.7381737 194.650359,99.7381737 C191.745933,99.7381737 189.391021,97.3764098 189.391021,94.4634159 C189.391021,91.5504224 191.745933,89.1881544 194.650359,89.1881544 C197.553276,89.1881544 199.908691,91.5504224 199.908691,94.4634159 Z M158.515725,194.450304 C158.50014,194.413992 158.489582,194.376672 158.472488,194.34036 C156.668597,190.294144 151.935645,188.482096 147.903034,190.292127 C143.868914,192.101652 142.062509,196.848883 143.8664,200.8951 C143.882991,200.930907 143.903604,200.964193 143.920195,201 L158.515725,194.450304 Z M18.767959,193.649936 C18.7749976,193.611608 18.7860583,193.573783 18.7930969,193.534445 C19.5261161,189.163443 16.5870004,185.023925 12.2296079,184.289121 C7.87221541,183.553812 3.74659375,186.501604 3.01256893,190.872607 C3.00653584,190.91144 3.00553034,190.950778 3,190.989611 L18.767959,193.649936 Z M118.905032,26 C118.897993,26.0383289 118.885927,26.075649 118.879391,26.1149866 C118.103637,30.4789292 121.002533,34.6461843 125.351881,35.4238567 C129.702235,36.2015291 133.856514,33.2950919 134.63277,28.9311492 C134.639306,28.8918117 134.640311,28.8534829 134.646847,28.8141454 L118.905032,26 Z" id="Stroke-14" stroke="#D0D0D0" stroke-width="2"></path>
                            <path d="M179,169.710863 C178.993939,169.6734 178.993939,169.635937 178.987878,169.597988 C178.33126,165.368559 174.239013,162.453741 169.850279,163.086234 C165.459019,163.718726 162.432514,167.659155 163.089637,171.88907 C163.095698,171.92702 163.106306,171.963023 163.112367,172" id="Stroke-15" stroke="#D0D0D0" stroke-width="2"></path>
                            <path d="M220.064118,291 C220.060087,291.038374 220.050513,291.076748 220.045474,291.116132 C219.577883,295.529628 222.769393,299.486173 227.172206,299.954233 C231.576529,300.423808 235.524851,297.226661 235.992945,292.813669 C235.996976,292.774286 235.995969,292.734902 236,292.696023" id="Stroke-16" stroke="#D0D0D0" stroke-width="2"></path>
                            <path d="M69,298.652092 C68.9944422,298.61477 68.9944422,298.577448 68.9883791,298.539641 C68.3118339,294.329014 64.2055726,291.442115 59.8168701,292.091134 C55.4281676,292.740153 52.4188294,296.67886 53.0948693,300.889487 C53.1004272,300.927294 53.1120481,300.962678 53.1181112,301" id="Stroke-18" stroke="#D0D0D0" stroke-width="2"></path>
                            <polygon id="Stroke-20" stroke="#D0D0D0" stroke-width="2" points="158.315406 282 173 287.314651 167.685087 302 153 296.685843"></polygon>
                            <polygon id="Stroke-21" stroke="#D0D0D0" stroke-width="2" points="258.315769 128 273 133.31465 267.685218 148 253 142.685843"></polygon>
                            <polygon id="Stroke-23" stroke="#D0D0D0" stroke-width="2" points="210.840574 231 220 234.840216 216.159426 244 207 240.159784"></polygon>
                            <polygon id="Stroke-24" stroke="#D0D0D0" stroke-width="2" points="99 189.913403 108.086597 185 113 194.086068 103.913932 199"></polygon>
                            <path d="M263.675357,174.996549 L272.323619,170.299223 L277,178.986218 L268.352745,183.684049 L263.675357,174.996549 Z M3.68907277,131 L12.8023054,134.70509 L9.11323259,143.859138 L0,140.154553 L3.68907277,131 Z M25.3872216,261.313006 L34.0349799,256.61568 L38.7113613,265.302169 L30.0641064,270 L25.3872216,261.313006 Z" id="Stroke-25" stroke="#D0D0D0" stroke-width="2"></path>
                            <path d="M46.8883242,147.966224 C50.2758374,147.147482 51.1776257,153.155369 55.4997474,152.110734 M32.6389551,151.410857 C36.0259636,150.591623 36.9287617,156.599509 41.2493687,155.554874 M46.8883242,147.966224 C43.5018203,148.784966 45.570481,154.510238 41.2493687,155.554874 M32.6389551,151.410857 C29.2519466,152.229106 31.3226266,157.955365 27,159 M75.3880714,141.076957 C78.7750802,140.258216 79.6773734,146.265609 84,145.221467 M61.1381975,144.521098 C64.5257112,143.702356 65.4280045,149.710242 69.7496213,148.665607 M75.3880714,141.076957 C72.001063,141.895206 74.0707331,147.620971 69.7496213,148.665607 M61.1381975,144.521098 C57.7516941,145.339839 59.822374,151.066098 55.4997474,152.110734" id="Stroke-26" stroke="#D0D0D0" stroke-width="2"></path>
                            <polyline id="Stroke-28" stroke="#D0D0D0" stroke-width="2" points="154 229.442379 161.792157 224 166.999744 231.721189 174.792926 226.2783 180 234"></polyline>
                            <path d="M159,32.4929152 L162.053963,23.6650372 L170.65903,26.827878 L173.711986,18 L182.31806,21.1628408 M191.152199,278 L195.160211,269.561062 L203.365031,273.65122 L207.372035,265.212785 L215.576855,269.30244 L219.58386,260.864005 L227.788679,264.954162 L231.795684,256.515224 L240,260.605382" id="Stroke-29" stroke="#D0D0D0" stroke-width="2"></path>
                            <path d="M234,112.724325 L230.243015,121.285086 L221.908892,117.439239 L218.151404,126 L209.81728,122.154657 M231.585912,106.545694 L207.694556,115.862734 M6,91.1351164 L7.24157417,81.8704416 L16.3151979,83.2646748 L17.556772,74 L26.6303957,75.3937295 M10.0312094,96.405407 L30.4120804,80.8543489" id="Stroke-30" stroke="#D0D0D0" stroke-width="2"></path>
                            <path d="M68.0487561,206.60253 C71.4392776,207.30128 69.619277,213.210768 73.9466,214.102416 M53.7823156,203.663861 C57.173338,204.362109 55.3528365,210.271597 59.679659,211.162742 M68.0487561,206.60253 C64.6577336,205.904282 64.00598,212.054389 59.679659,211.162742 M53.7823156,203.663861 C50.3912936,202.96511 49.7405419,209.115218 45.4132185,208.224072 M44,215.121155 L72.532881,221 M130.952246,103.396968 C127.561724,102.69872 129.381725,96.7892321 125.053901,95.8970823 M145.218686,106.336642 C141.827163,105.637892 143.647163,99.7284036 139.320842,98.8367559 M130.952246,103.396968 C134.343268,104.095718 134.995022,97.9461133 139.320842,98.8367559 M145.218686,106.336642 C148.608706,107.03489 149.259458,100.88428 153.587283,101.77643 M155,94.8788457 L126.46762,89" id="Stroke-31" stroke="#D0D0D0" stroke-width="2"></path>
                            <path d="M185.146832,206.089389 L204.046073,206.089389 M57.7305398,76.341104 L76.6292775,76.341104 M52.9447249,174.875125 L71.8439653,174.875125 M44,236.838062 L58.9576849,248.381321 M182.470157,43 L197.427842,54.5432592 M268,242.556394 L260.755869,260 M190.953507,126.982013 L179.340157,141.882461" id="Stroke-32" stroke="#D0D0D0" stroke-width="2"></path>
                            <path d="M741.94092,56.8401892 L749.847759,59.5213598 L750.920855,51.2619409 L752,43 L743.019561,48.5817791 L734.035594,54.1610358 L741.94092,56.8401892 Z M725.31423,119.54579 L730.784047,121.399152 L736.255376,123.255037 L736.997823,117.540082 L737.743799,111.82311 L725.31423,119.54579 Z M661.705685,240.559669 L658,251.509844 L663.709739,252.253408 L669.422502,253 L661.705685,240.559669 Z" id="Stroke-3" stroke="#D0D0D0" stroke-width="2"></path>
                            <path d="M597.050356,220 L596.079969,208.513693 L590.541751,210.108608 L585,211.701008 M604,11.6973264 L598.52385,9.84941766 L593.046186,8 L592.302879,13.6976348 L591.55604,19.3982875" id="Stroke-4" stroke="#D0D0D0" stroke-width="2"></path>
                            <polygon id="Stroke-5" stroke="#D0D0D0" stroke-width="2" points="822.691349 184.252441 825 176.504395 817.001216 175.754395 809 175 814.694024 183.497559 820.386103 192"></polygon>
                            <polygon id="Stroke-6" stroke="#D0D0D0" stroke-width="2" points="723.802487 238.900221 716.605465 235 714.305189 242.99899 712 251 721.497299 246.897695 731 242.797916"></polygon>
                            <polygon id="Stroke-7" stroke="#D0D0D0" stroke-width="2" points="599.025387 272.66363 592.050774 268 589.028391 275.998959 586 284 595.997496 280.660507 606 277.324658"></polygon>
                            <path d="M701,136 C701,140.418526 697.417746,144 693.000503,144 C688.581752,144 685,140.418526 685,136 C685,131.581474 688.581752,128 693.000503,128 C697.417746,128 701,131.581474 701,136 Z" id="Stroke-8" stroke="#D0D0D0" stroke-width="2"></path>
                            <path d="M860,270.742391 C860,275.160589 856.417788,278.741797 851.999978,278.741797 C847.581162,278.741797 843.99895,275.160589 843.99895,270.742391 C843.99895,266.324194 847.581162,262.742985 851.999978,262.742985 C856.417788,262.742985 860,266.324194 860,270.742391 Z M801.139103,146.258203 C801.139103,149.161777 798.783138,151.515904 795.880666,151.515904 C792.975681,151.515904 790.621225,149.161777 790.621225,146.258203 C790.621225,143.354629 792.975681,141 795.880666,141 C798.783138,141 801.139103,143.354629 801.139103,146.258203 Z M689.517374,278.7423 C689.517374,281.645873 687.162416,284 684.258939,284 C681.354456,284 679,281.645873 679,278.7423 C679,275.838726 681.354456,273.484096 684.258939,273.484096 C687.162416,273.484096 689.517374,275.838726 689.517374,278.7423 Z" id="Stroke-9" stroke="#D0D0D0" stroke-width="2"></path>
                            <path d="M693,214.500263 C693,217.537502 690.53645,220 687.500263,220 C684.461973,220 682,217.537502 682,214.500263 C682,211.462498 684.461973,209 687.500263,209 C690.53645,209 693,211.462498 693,214.500263 Z" id="Stroke-10" stroke="#D0D0D0" stroke-width="2"></path>
                            <path d="M857,200.732335 C857,203.641915 854.639124,206 851.728352,206 C848.816067,206 846.456704,203.641915 846.456704,200.732335 C846.456704,197.823258 848.816067,195.464166 851.728352,195.464166 C854.639124,195.464166 857,197.823258 857,200.732335 Z M655.5438,5.26816865 C655.5438,8.17724534 653.182421,10.5358337 650.272152,10.5358337 C647.359868,10.5358337 645,8.17724534 645,5.26816865 C645,2.35858832 647.359868,0 650.272152,0 C653.182421,0 655.5438,2.35858832 655.5438,5.26816865 Z" id="Stroke-12" stroke="#D0D0D0" stroke-width="2"></path>
                            <path d="M852,40.7166287 C852,43.6296222 849.644082,45.9913861 846.741668,45.9913861 C843.836739,45.9913861 841.48233,43.6296222 841.48233,40.7166287 C841.48233,37.8031308 843.836739,35.4413669 846.741668,35.4413669 C849.644082,35.4413669 852,37.8031308 852,40.7166287 Z M780.908691,77.4634159 C780.908691,80.3764098 778.553276,82.7381737 775.650359,82.7381737 C772.745933,82.7381737 770.391021,80.3764098 770.391021,77.4634159 C770.391021,74.5504224 772.745933,72.1881544 775.650359,72.1881544 C778.553276,72.1881544 780.908691,74.5504224 780.908691,77.4634159 Z M739.515725,177.450304 C739.50014,177.413992 739.489582,177.376672 739.472488,177.34036 C737.668597,173.294144 732.935645,171.482096 728.903034,173.292127 C724.868914,175.101652 723.062509,179.848883 724.8664,183.8951 C724.882991,183.930907 724.903604,183.964193 724.920195,184 L739.515725,177.450304 Z M599.767959,176.649936 C599.774998,176.611608 599.786058,176.573783 599.793097,176.534445 C600.526116,172.163443 597.587,168.023925 593.229608,167.289121 C588.872215,166.553812 584.746594,169.501604 584.012569,173.872607 C584.006536,173.91144 584.00553,173.950778 584,173.989611 L599.767959,176.649936 Z M699.905032,9 C699.897993,9.03832886 699.885927,9.07564904 699.879391,9.11498658 C699.103637,13.4789292 702.002533,17.6461843 706.351881,18.4238567 C710.702235,19.2015291 714.856514,16.2950919 715.63277,11.9311492 C715.639306,11.8918117 715.640311,11.8534829 715.646847,11.8141454 L699.905032,9 Z" id="Stroke-14" stroke="#D0D0D0" stroke-width="2"></path>
                            <path d="M760,152.710863 C759.993939,152.6734 759.993939,152.635937 759.987878,152.597988 C759.33126,148.368559 755.239013,145.453741 750.850279,146.086234 C746.459019,146.718726 743.432514,150.659155 744.089637,154.88907 C744.095698,154.92702 744.106306,154.963023 744.112367,155" id="Stroke-15" stroke="#D0D0D0" stroke-width="2"></path>
                            <path d="M801.064118,274 C801.060087,274.038374 801.050513,274.076748 801.045474,274.116132 C800.577883,278.529628 803.769393,282.486173 808.172206,282.954233 C812.576529,283.423808 816.524851,280.226661 816.992945,275.813669 C816.996976,275.774286 816.995969,275.734902 817,275.696023" id="Stroke-16" stroke="#D0D0D0" stroke-width="2"></path>
                            <path d="M650,280.652092 C649.994442,280.61477 649.994442,280.577448 649.988379,280.539641 C649.311834,276.329014 645.205573,273.442115 640.81687,274.091134 C636.428168,274.740153 633.418829,278.67886 634.094869,282.889487 C634.100427,282.927294 634.112048,282.962678 634.118111,283" id="Stroke-18" stroke="#D0D0D0" stroke-width="2"></path>
                            <polygon id="Stroke-20" stroke="#D0D0D0" stroke-width="2" points="739.315406 264 754 269.314651 748.685087 284 734 278.685843"></polygon>
                            <polygon id="Stroke-21" stroke="#D0D0D0" stroke-width="2" points="839.315769 110 854 115.31465 848.685218 130 834 124.685843"></polygon>
                            <polygon id="Stroke-23" stroke="#D0D0D0" stroke-width="2" points="791.840574 213 801 216.840216 797.159426 226 788 222.159784"></polygon>
                            <polygon id="Stroke-24" stroke="#D0D0D0" stroke-width="2" points="680 172.913403 689.086597 168 694 177.086068 684.913932 182"></polygon>
                            <path d="M844.675357,157.996549 L853.323619,153.299223 L858,161.986218 L849.352745,166.684049 L844.675357,157.996549 Z M584.689073,114 L593.802305,117.70509 L590.113233,126.859138 L581,123.154553 L584.689073,114 Z M606.387222,244.313006 L615.03498,239.61568 L619.711361,248.302169 L611.064106,253 L606.387222,244.313006 Z" id="Stroke-25" stroke="#D0D0D0" stroke-width="2"></path>
                            <path d="M627.888324,130.966224 C631.275837,130.147482 632.177626,136.155369 636.499747,135.110734 M613.638955,134.410857 C617.025964,133.591623 617.928762,139.599509 622.249369,138.554874 M627.888324,130.966224 C624.50182,131.784966 626.570481,137.510238 622.249369,138.554874 M613.638955,134.410857 C610.251947,135.229106 612.322627,140.955365 608,142 M656.388071,124.076957 C659.77508,123.258216 660.677373,129.265609 665,128.221467 M642.138198,127.521098 C645.525711,126.702356 646.428004,132.710242 650.749621,131.665607 M656.388071,124.076957 C653.001063,124.895206 655.070733,130.620971 650.749621,131.665607 M642.138198,127.521098 C638.751694,128.339839 640.822374,134.066098 636.499747,135.110734" id="Stroke-26" stroke="#D0D0D0" stroke-width="2"></path>
                            <polyline id="Stroke-28" stroke="#D0D0D0" stroke-width="2" points="735 212.442379 742.792157 207 747.999744 214.721189 755.792926 209.2783 761 217"></polyline>
                            <path d="M740,15.4929152 L743.053963,6.66503723 L751.65903,9.82787795 L754.711986,1 L763.31806,4.16284077 M772.152199,261 L776.160211,252.561062 L784.365031,256.65122 L788.372035,248.212785 L796.576855,252.30244 L800.58386,243.864005 L808.788679,247.954162 L812.795684,239.515224 L821,243.605382" id="Stroke-29" stroke="#D0D0D0" stroke-width="2"></path>
                            <path d="M649.048756,189.60253 C652.439278,190.30128 650.619277,196.210768 654.9466,197.102416 M634.782316,186.663861 C638.173338,187.362109 636.352837,193.271597 640.679659,194.162742 M649.048756,189.60253 C645.657734,188.904282 645.00598,195.054389 640.679659,194.162742 M634.782316,186.663861 C631.391294,185.96511 630.740542,192.115218 626.413218,191.224072 M625,198.121155 L653.532881,204 M711.952246,86.3969677 C708.561724,85.69872 710.381725,79.7892321 706.053901,78.8970823 M726.218686,89.3366418 C722.827163,88.6378916 724.647163,82.7284036 720.320842,81.8367559 M711.952246,86.3969677 C715.343268,87.0957179 715.995022,80.9461133 720.320842,81.8367559 M726.218686,89.3366418 C729.608706,90.0348895 730.259458,83.8842803 734.587283,84.7764301 M736,77.8788457 L707.46762,72" id="Stroke-31" stroke="#D0D0D0" stroke-width="2"></path>
                            <path d="M766.146832,189.089389 L785.046073,189.089389 M638.73054,59.341104 L657.629278,59.341104 M633.944725,157.875125 L652.843965,157.875125 M625,219.838062 L639.957685,231.381321 M763.470157,26 L778.427842,37.5432592 M849,225.556394 L841.755869,243 M771.953507,109.982013 L760.340157,124.882461" id="Stroke-32" stroke="#D0D0D0" stroke-width="2"></path>
                            <path d="M449.94092,133.840189 L457.847759,136.52136 L458.920855,128.261941 L460,120 L451.019561,125.581779 L442.035594,131.161036 L449.94092,133.840189 Z M433.31423,196.54579 L438.784047,198.399152 L444.255376,200.255037 L444.997823,194.540082 L445.743799,188.82311 L433.31423,196.54579 Z M369.705685,317.559669 L366,328.509844 L371.709739,329.253408 L377.422502,330 L369.705685,317.559669 Z" id="Stroke-3" stroke="#D0D0D0" stroke-width="2"></path>
                            <path d="M305.050356,298 L304.079969,286.513693 L298.541751,288.108608 L293,289.701008 M312,89.6973264 L306.52385,87.8494177 L301.046186,86 L300.302879,91.6976348 L299.55604,97.3982875" id="Stroke-4" stroke="#D0D0D0" stroke-width="2"></path>
                            <polygon id="Stroke-5" stroke="#D0D0D0" stroke-width="2" points="529.691349 262.252441 532 254.504395 524.001216 253.754395 516 253 521.694024 261.497559 527.386103 270"></polygon>
                            <path d="M408,213 C408,217.418526 404.417746,221 400.000503,221 C395.581752,221 392,217.418526 392,213 C392,208.581474 395.581752,205 400.000503,205 C404.417746,205 408,208.581474 408,213 Z" id="Stroke-8" stroke="#D0D0D0" stroke-width="2"></path>
                            <path d="M568,348.742391 C568,353.160589 564.417788,356.741797 559.999978,356.741797 C555.581162,356.741797 551.99895,353.160589 551.99895,348.742391 C551.99895,344.324194 555.581162,340.742985 559.999978,340.742985 C564.417788,340.742985 568,344.324194 568,348.742391 Z M509.139103,224.258203 C509.139103,227.161777 506.783138,229.515904 503.880666,229.515904 C500.975681,229.515904 498.621225,227.161777 498.621225,224.258203 C498.621225,221.354629 500.975681,219 503.880666,219 C506.783138,219 509.139103,221.354629 509.139103,224.258203 Z M397.517374,356.7423 C397.517374,359.645873 395.162416,362 392.258939,362 C389.354456,362 387,359.645873 387,356.7423 C387,353.838726 389.354456,351.484096 392.258939,351.484096 C395.162416,351.484096 397.517374,353.838726 397.517374,356.7423 Z" id="Stroke-9" stroke="#D0D0D0" stroke-width="2"></path>
                            <path d="M400,291.500263 C400,294.537502 397.53645,297 394.500263,297 C391.461973,297 389,294.537502 389,291.500263 C389,288.462498 391.461973,286 394.500263,286 C397.53645,286 400,288.462498 400,291.500263 Z" id="Stroke-10" stroke="#D0D0D0" stroke-width="2"></path>
                            <path d="M409,124.500263 C409,127.537502 406.536976,130 403.500263,130 C400.462498,130 398,127.537502 398,124.500263 C398,121.463024 400.462498,119 403.500263,119 C406.536976,119 409,121.463024 409,124.500263 Z" id="Stroke-11" stroke="#D0D0D0" stroke-width="2"></path>
                            <path d="M564,278.732335 C564,281.641915 561.639124,284 558.728352,284 C555.816067,284 553.456704,281.641915 553.456704,278.732335 C553.456704,275.823258 555.816067,273.464166 558.728352,273.464166 C561.639124,273.464166 564,275.823258 564,278.732335 Z M362.5438,83.2681687 C362.5438,86.1772453 360.182421,88.5358337 357.272152,88.5358337 C354.359868,88.5358337 352,86.1772453 352,83.2681687 C352,80.3585883 354.359868,78 357.272152,78 C360.182421,78 362.5438,80.3585883 362.5438,83.2681687 Z" id="Stroke-12" stroke="#D0D0D0" stroke-width="2"></path>
                            <path d="M337,177.500263 C337,180.538028 334.536976,183 331.500263,183 C328.462498,183 326,180.538028 326,177.500263 C326,174.463024 328.462498,172 331.500263,172 C334.536976,172 337,174.463024 337,177.500263 Z" id="Stroke-13" stroke="#D0D0D0" stroke-width="2"></path>
                            <path d="M559,118.716629 C559,121.629622 556.644082,123.991386 553.741668,123.991386 C550.836739,123.991386 548.48233,121.629622 548.48233,118.716629 C548.48233,115.803131 550.836739,113.441367 553.741668,113.441367 C556.644082,113.441367 559,115.803131 559,118.716629 Z M487.908691,155.463416 C487.908691,158.37641 485.553276,160.738174 482.650359,160.738174 C479.745933,160.738174 477.391021,158.37641 477.391021,155.463416 C477.391021,152.550422 479.745933,150.188154 482.650359,150.188154 C485.553276,150.188154 487.908691,152.550422 487.908691,155.463416 Z M446.515725,255.450304 C446.50014,255.413992 446.489582,255.376672 446.472488,255.34036 C444.668597,251.294144 439.935645,249.482096 435.903034,251.292127 C431.868914,253.101652 430.062509,257.848883 431.8664,261.8951 C431.882991,261.930907 431.903604,261.964193 431.920195,262 L446.515725,255.450304 Z M306.767959,254.649936 C306.774998,254.611608 306.786058,254.573783 306.793097,254.534445 C307.526116,250.163443 304.587,246.023925 300.229608,245.289121 C295.872215,244.553812 291.746594,247.501604 291.012569,251.872607 C291.006536,251.91144 291.00553,251.950778 291,251.989611 L306.767959,254.649936 Z M406.905032,87 C406.897993,87.0383289 406.885927,87.075649 406.879391,87.1149866 C406.103637,91.4789292 409.002533,95.6461843 413.351881,96.4238567 C417.702235,97.2015291 421.856514,94.2950919 422.63277,89.9311492 C422.639306,89.8918117 422.640311,89.8534829 422.646847,89.8141454 L406.905032,87 Z" id="Stroke-14" stroke="#D0D0D0" stroke-width="2"></path>
                            <path d="M467,229.710863 C466.993939,229.6734 466.993939,229.635937 466.987878,229.597988 C466.33126,225.368559 462.239013,222.453741 457.850279,223.086234 C453.459019,223.718726 450.432514,227.659155 451.089637,231.88907 C451.095698,231.92702 451.106306,231.963023 451.112367,232" id="Stroke-15" stroke="#D0D0D0" stroke-width="2"></path>
                            <polygon id="Stroke-19" stroke="#D0D0D0" stroke-width="2" points="372.315275 160 387 165.314651 381.684724 180 367 174.685842"></polygon>
                            <polygon id="Stroke-21" stroke="#D0D0D0" stroke-width="2" points="547.315769 188 562 193.31465 556.685218 208 542 202.685843"></polygon>
                            <polygon id="Stroke-23" stroke="#D0D0D0" stroke-width="2" points="498.840574 291 508 294.840216 504.159426 304 495 300.159784"></polygon>
                            <polygon id="Stroke-24" stroke="#D0D0D0" stroke-width="2" points="388 249.913403 397.086597 245 402 254.086068 392.913932 259"></polygon>
                            <path d="M551.675357,234.996549 L560.323619,230.299223 L565,238.986218 L556.352745,243.684049 L551.675357,234.996549 Z M291.689073,191 L300.802305,194.70509 L297.113233,203.859138 L288,200.154553 L291.689073,191 Z M313.387222,321.313006 L322.03498,316.61568 L326.711361,325.302169 L318.064106,330 L313.387222,321.313006 Z" id="Stroke-25" stroke="#D0D0D0" stroke-width="2"></path>
                            <path d="M335.888324,208.966224 C339.275837,208.147482 340.177626,214.155369 344.499747,213.110734 M321.638955,212.410857 C325.025964,211.591623 325.928762,217.599509 330.249369,216.554874 M335.888324,208.966224 C332.50182,209.784966 334.570481,215.510238 330.249369,216.554874 M321.638955,212.410857 C318.251947,213.229106 320.322627,218.955365 316,220 M364.388071,202.076957 C367.77508,201.258216 368.677373,207.265609 373,206.221467 M350.138198,205.521098 C353.525711,204.702356 354.428004,210.710242 358.749621,209.665607 M364.388071,202.076957 C361.001063,202.895206 363.070733,208.620971 358.749621,209.665607 M350.138198,205.521098 C346.751694,206.339839 348.822374,212.066098 344.499747,213.110734" id="Stroke-26" stroke="#D0D0D0" stroke-width="2"></path>
                            <path d="M533.507906,139.492027 C536.047393,141.869883 531.396112,145.964046 534.636008,148.997914 M522.826665,129.491739 C525.365649,131.868589 520.71638,135.963758 523.954767,138.996116 M533.507906,139.492027 C530.969426,137.115681 527.193656,142.028474 523.954767,138.996116 M522.826665,129.491739 C520.288185,127.113883 516.513422,132.029194 513.273022,128.996332 M554.870892,159.494113 C557.410379,161.870962 552.760104,165.965628 556,169 M544.190657,149.492819 C546.72964,151.870674 542.079366,155.964837 545.318759,158.998202 M554.870892,159.494113 C552.333418,157.11676 548.557648,162.031063 545.318759,158.998202 M544.190657,149.492819 C541.65117,147.116472 537.876407,152.031279 534.636008,148.997914 M324,104.364399 L331.649153,99 L336.760329,106.610348 L344.409483,101.245949 L349.520659,108.856297 L357.170316,103.491898 L362.281995,111.102246 L369.930645,105.737847 L375.041821,113.347692" id="Stroke-27" stroke="#D0D0D0" stroke-width="2"></path>
                            <polyline id="Stroke-28" stroke="#D0D0D0" stroke-width="2" points="442 289.442379 449.792157 284 454.999744 291.721189 462.792926 286.2783 468 294"></polyline>
                            <path d="M447,92.4929152 L450.053963,83.6650372 L458.65903,86.827878 L461.711986,78 L470.31806,81.1628408 M479.152199,338 L483.160211,329.561062 L491.365031,333.65122 L495.372035,325.212785 L503.576855,329.30244 L507.58386,320.864005 L515.788679,324.954162 L519.795684,316.515224 L528,320.605382" id="Stroke-29" stroke="#D0D0D0" stroke-width="2"></path>
                            <path d="M523,172.724325 L519.243015,181.285086 L510.908892,177.439239 L507.151404,186 L498.81728,182.154657 M520.585912,166.545694 L496.694556,175.862734 M295,151.135116 L296.241574,141.870442 L305.315198,143.264675 L306.556772,134 L315.630396,135.393729 M299.031209,156.405407 L319.41208,140.854349" id="Stroke-30" stroke="#D0D0D0" stroke-width="2"></path>
                            <path d="M356.048756,267.60253 C359.439278,268.30128 357.619277,274.210768 361.9466,275.102416 M341.782316,264.663861 C345.173338,265.362109 343.352837,271.271597 347.679659,272.162742 M356.048756,267.60253 C352.657734,266.904282 352.00598,273.054389 347.679659,272.162742 M341.782316,264.663861 C338.391294,263.96511 337.740542,270.115218 333.413218,269.224072 M332,276.121155 L360.532881,282 M418.952246,164.396968 C415.561724,163.69872 417.381725,157.789232 413.053901,156.897082 M433.218686,167.336642 C429.827163,166.637892 431.647163,160.728404 427.320842,159.836756 M418.952246,164.396968 C422.343268,165.095718 422.995022,158.946113 427.320842,159.836756 M433.218686,167.336642 C436.608706,168.03489 437.259458,161.88428 441.587283,162.77643 M443,155.878846 L414.46762,150" id="Stroke-31" stroke="#D0D0D0" stroke-width="2"></path>
                            <path d="M473.146832,266.089389 L492.046073,266.089389 M345.73054,136.341104 L364.629278,136.341104 M340.944725,234.875125 L359.843965,234.875125 M332,296.838062 L346.957685,308.381321 M470.470157,103 L485.427842,114.543259 M556,302.556394 L548.755869,320 M478.953507,186.982013 L467.340157,201.882461" id="Stroke-32" stroke="#D0D0D0" stroke-width="2"></path>
                            <path d="M1030.94092,116.840189 L1038.84776,119.52136 L1039.92086,111.261941 L1041,103 L1032.01956,108.581779 L1023.03559,114.161036 L1030.94092,116.840189 Z M1014.31423,179.54579 L1019.78405,181.399152 L1025.25538,183.255037 L1025.99782,177.540082 L1026.7438,171.82311 L1014.31423,179.54579 Z M950.705685,300.559669 L947,311.509844 L952.709739,312.253408 L958.422502,313 L950.705685,300.559669 Z" id="Stroke-3" stroke="#D0D0D0" stroke-width="2"></path>
                            <path d="M886.050356,280 L885.079969,268.513693 L879.541751,270.108608 L874,271.701008 M893,71.6973264 L887.52385,69.8494177 L882.046186,68 L881.302879,73.6976348 L880.55604,79.3982875" id="Stroke-4" stroke="#D0D0D0" stroke-width="2"></path>
                            <polygon id="Stroke-5" stroke="#D0D0D0" stroke-width="2" points="1110.69135 244.252441 1113 236.504395 1105.00122 235.754395 1097 235 1102.69402 243.497559 1108.3861 252"></polygon>
                            <path d="M989,196 C989,200.418526 985.417746,204 981.000503,204 C976.581752,204 973,200.418526 973,196 C973,191.581474 976.581752,188 981.000503,188 C985.417746,188 989,191.581474 989,196 Z" id="Stroke-8" stroke="#D0D0D0" stroke-width="2"></path>
                            <path d="M1148,331.742391 C1148,336.160589 1144.41779,339.741797 1139.99998,339.741797 C1135.58116,339.741797 1131.99895,336.160589 1131.99895,331.742391 C1131.99895,327.324194 1135.58116,323.742985 1139.99998,323.742985 C1144.41779,323.742985 1148,327.324194 1148,331.742391 Z M1089.1391,207.258203 C1089.1391,210.161777 1086.78314,212.515904 1083.88067,212.515904 C1080.97568,212.515904 1078.62123,210.161777 1078.62123,207.258203 C1078.62123,204.354629 1080.97568,202 1083.88067,202 C1086.78314,202 1089.1391,204.354629 1089.1391,207.258203 Z M977.517374,339.7423 C977.517374,342.645873 975.162416,345 972.258939,345 C969.354456,345 967,342.645873 967,339.7423 C967,336.838726 969.354456,334.484096 972.258939,334.484096 C975.162416,334.484096 977.517374,336.838726 977.517374,339.7423 Z" id="Stroke-9" stroke="#D0D0D0" stroke-width="2"></path>
                            <path d="M981,274.500263 C981,277.537502 978.53645,280 975.500263,280 C972.461973,280 970,277.537502 970,274.500263 C970,271.462498 972.461973,269 975.500263,269 C978.53645,269 981,271.462498 981,274.500263 Z" id="Stroke-10" stroke="#D0D0D0" stroke-width="2"></path>
                            <path d="M1145,260.732335 C1145,263.641915 1142.63912,266 1139.72835,266 C1136.81607,266 1134.4567,263.641915 1134.4567,260.732335 C1134.4567,257.823258 1136.81607,255.464166 1139.72835,255.464166 C1142.63912,255.464166 1145,257.823258 1145,260.732335 Z M943.5438,65.2681687 C943.5438,68.1772453 941.182421,70.5358337 938.272152,70.5358337 C935.359868,70.5358337 933,68.1772453 933,65.2681687 C933,62.3585883 935.359868,60 938.272152,60 C941.182421,60 943.5438,62.3585883 943.5438,65.2681687 Z" id="Stroke-12" stroke="#D0D0D0" stroke-width="2"></path>
                            <path d="M917,160.500263 C917,163.538028 914.536976,166 911.500263,166 C908.462498,166 906,163.538028 906,160.500263 C906,157.463024 908.462498,155 911.500263,155 C914.536976,155 917,157.463024 917,160.500263 Z" id="Stroke-13" stroke="#D0D0D0" stroke-width="2"></path>
                            <path d="M1140,100.716629 C1140,103.629622 1137.64408,105.991386 1134.74167,105.991386 C1131.83674,105.991386 1129.48233,103.629622 1129.48233,100.716629 C1129.48233,97.8031308 1131.83674,95.4413669 1134.74167,95.4413669 C1137.64408,95.4413669 1140,97.8031308 1140,100.716629 Z M1068.90869,137.463416 C1068.90869,140.37641 1066.55328,142.738174 1063.65036,142.738174 C1060.74593,142.738174 1058.39102,140.37641 1058.39102,137.463416 C1058.39102,134.550422 1060.74593,132.188154 1063.65036,132.188154 C1066.55328,132.188154 1068.90869,134.550422 1068.90869,137.463416 Z M1027.51573,237.450304 C1027.50014,237.413992 1027.48958,237.376672 1027.47249,237.34036 C1025.6686,233.294144 1020.93565,231.482096 1016.90303,233.292127 C1012.86891,235.101652 1011.06251,239.848883 1012.8664,243.8951 C1012.88299,243.930907 1012.9036,243.964193 1012.92019,244 L1027.51573,237.450304 Z M887.767959,236.649936 C887.774998,236.611608 887.786058,236.573783 887.793097,236.534445 C888.526116,232.163443 885.587,228.023925 881.229608,227.289121 C876.872215,226.553812 872.746594,229.501604 872.012569,233.872607 C872.006536,233.91144 872.00553,233.950778 872,233.989611 L887.767959,236.649936 Z M987.905032,69 C987.897993,69.0383289 987.885927,69.075649 987.879391,69.1149866 C987.103637,73.4789292 990.002533,77.6461843 994.351881,78.4238567 C998.702235,79.2015291 1002.85651,76.2950919 1003.63277,71.9311492 C1003.63931,71.8918117 1003.64031,71.8534829 1003.64685,71.8141454 L987.905032,69 Z" id="Stroke-14" stroke="#D0D0D0" stroke-width="2"></path>
                            <path d="M1048,212.710863 C1047.99394,212.6734 1047.99394,212.635937 1047.98788,212.597988 C1047.33126,208.368559 1043.23901,205.453741 1038.85028,206.086234 C1034.45902,206.718726 1031.43251,210.659155 1032.08964,214.88907 C1032.0957,214.92702 1032.10631,214.963023 1032.11237,215" id="Stroke-15" stroke="#D0D0D0" stroke-width="2"></path>
                            <polygon id="Stroke-19" stroke="#D0D0D0" stroke-width="2" points="953.315275 142 968 147.314651 962.684724 162 948 156.685842"></polygon>
                            <polygon id="Stroke-21" stroke="#D0D0D0" stroke-width="2" points="1127.31577 171 1142 176.31465 1136.68522 191 1122 185.685843"></polygon>
                            <polygon id="Stroke-23" stroke="#D0D0D0" stroke-width="2" points="1079.84057 274 1089 277.840216 1085.15943 287 1076 283.159784"></polygon>
                            <polygon id="Stroke-24" stroke="#D0D0D0" stroke-width="2" points="968 232.913403 977.086597 228 982 237.086068 972.913932 242"></polygon>
                            <path d="M1132.67536,217.996549 L1141.32362,213.299223 L1146,221.986218 L1137.35275,226.684049 L1132.67536,217.996549 Z M872.689073,174 L881.802305,177.70509 L878.113233,186.859138 L869,183.154553 L872.689073,174 Z M894.387222,304.313006 L903.03498,299.61568 L907.711361,308.302169 L899.064106,313 L894.387222,304.313006 Z" id="Stroke-25" stroke="#D0D0D0" stroke-width="2"></path>
                            <path d="M915.888324,190.966224 C919.275837,190.147482 920.177626,196.155369 924.499747,195.110734 M901.638955,194.410857 C905.025964,193.591623 905.928762,199.599509 910.249369,198.554874 M915.888324,190.966224 C912.50182,191.784966 914.570481,197.510238 910.249369,198.554874 M901.638955,194.410857 C898.251947,195.229106 900.322627,200.955365 896,202 M944.388071,184.076957 C947.77508,183.258216 948.677373,189.265609 953,188.221467 M930.138198,187.521098 C933.525711,186.702356 934.428004,192.710242 938.749621,191.665607 M944.388071,184.076957 C941.001063,184.895206 943.070733,190.620971 938.749621,191.665607 M930.138198,187.521098 C926.751694,188.339839 928.822374,194.066098 924.499747,195.110734" id="Stroke-26" stroke="#D0D0D0" stroke-width="2"></path>
                            <path d="M1114.50791,122.492027 C1117.04739,124.869883 1112.39611,128.964046 1115.63601,131.997914 M1103.82666,112.491739 C1106.36565,114.868589 1101.71638,118.963758 1104.95477,121.996116 M1114.50791,122.492027 C1111.96943,120.115681 1108.19366,125.028474 1104.95477,121.996116 M1103.82666,112.491739 C1101.28818,110.113883 1097.51342,115.029194 1094.27302,111.996332 M1135.87089,142.494113 C1138.41038,144.870962 1133.7601,148.965628 1137,152 M1125.19066,132.492819 C1127.72964,134.870674 1123.07937,138.964837 1126.31876,141.998202 M1135.87089,142.494113 C1133.33342,140.11676 1129.55765,145.031063 1126.31876,141.998202 M1125.19066,132.492819 C1122.65117,130.116472 1118.87641,135.031279 1115.63601,131.997914 M905,87.3643994 L912.649153,82 L917.760329,89.6103483 L925.409483,84.2459489 L930.520659,91.8562972 L938.170316,86.4918978 L943.281995,94.1022461 L950.930645,88.7378467 L956.041821,96.3476916" id="Stroke-27" stroke="#D0D0D0" stroke-width="2"></path>
                            <polyline id="Stroke-28" stroke="#D0D0D0" stroke-width="2" points="1023 272.442379 1030.79216 267 1035.99974 274.721189 1043.79293 269.2783 1049 277"></polyline>
                            <path d="M1028,75.4929152 L1031.05396,66.6650372 L1039.65903,69.827878 L1042.71199,61 L1051.31806,64.1628408 M1060.1522,321 L1064.16021,312.561062 L1072.36503,316.65122 L1076.37204,308.212785 L1084.57685,312.30244 L1088.58386,303.864005 L1096.78868,307.954162 L1100.79568,299.515224 L1109,303.605382" id="Stroke-29" stroke="#D0D0D0" stroke-width="2"></path>
                            <path d="M1103,155.724325 L1099.24302,164.285086 L1090.90889,160.439239 L1087.1514,169 L1078.81728,165.154657 M1100.58591,149.545694 L1076.69456,158.862734 M875,134.135116 L876.241574,124.870442 L885.315198,126.264675 L886.556772,117 L895.630396,118.393729 M879.031209,139.405407 L899.41208,123.854349" id="Stroke-30" stroke="#D0D0D0" stroke-width="2"></path>
                            <path d="M937.048756,249.60253 C940.439278,250.30128 938.619277,256.210768 942.9466,257.102416 M922.782316,246.663861 C926.173338,247.362109 924.352837,253.271597 928.679659,254.162742 M937.048756,249.60253 C933.657734,248.904282 933.00598,255.054389 928.679659,254.162742 M922.782316,246.663861 C919.391294,245.96511 918.740542,252.115218 914.413218,251.224072 M913,258.121155 L941.532881,264 M999.952246,146.396968 C996.561724,145.69872 998.381725,139.789232 994.053901,138.897082 M1014.21869,149.336642 C1010.82716,148.637892 1012.64716,142.728404 1008.32084,141.836756 M999.952246,146.396968 C1003.34327,147.095718 1003.99502,140.946113 1008.32084,141.836756 M1014.21869,149.336642 C1017.60871,150.03489 1018.25946,143.88428 1022.58728,144.77643 M1024,137.878846 L995.46762,132" id="Stroke-31" stroke="#D0D0D0" stroke-width="2"></path>
                            <path d="M1054.14683,249.089389 L1073.04607,249.089389 M926.73054,119.341104 L945.629278,119.341104 M921.944725,217.875125 L940.843965,217.875125 M913,279.838062 L927.957685,291.381321 M1051.47016,86 L1066.42784,97.5432592 M1137,285.556394 L1129.75587,303 M1059.95351,169.982013 L1048.34016,184.882461" id="Stroke-32" stroke="#D0D0D0" stroke-width="2"></path>
                            <g id="Stroke-3">
                                <use stroke="#D0D0D0" stroke-width="2" xlink:href="#path-3"></use>
                                <use stroke="#979797" stroke-width="1" xlink:href="#path-3"></use>
                                <use stroke="#979797" stroke-width="1" xlink:href="#path-3"></use>
                            </g>
                            <g id="Stroke-4">
                                <use stroke="#D0D0D0" stroke-width="2" xlink:href="#path-4"></use>
                                <use stroke="#979797" stroke-width="1" xlink:href="#path-4"></use>
                                <use stroke="#979797" stroke-width="1" xlink:href="#path-4"></use>
                            </g>
                            <g id="Stroke-5">
                                <use stroke="#D0D0D0" stroke-width="2" xlink:href="#path-5"></use>
                                <use stroke="#979797" stroke-width="1" xlink:href="#path-5"></use>
                                <use stroke="#979797" stroke-width="1" xlink:href="#path-5"></use>
                            </g>
                            <g id="Stroke-6">
                                <use stroke="#D0D0D0" stroke-width="2" xlink:href="#path-6"></use>
                                <use stroke="#979797" stroke-width="1" xlink:href="#path-6"></use>
                                <use stroke="#979797" stroke-width="1" xlink:href="#path-6"></use>
                            </g>
                            <g id="Stroke-8">
                                <use stroke="#D0D0D0" stroke-width="2" xlink:href="#path-7"></use>
                                <use stroke="#979797" stroke-width="1" xlink:href="#path-7"></use>
                                <use stroke="#979797" stroke-width="1" xlink:href="#path-7"></use>
                            </g>
                            <g id="Stroke-9">
                                <use stroke="#D0D0D0" stroke-width="2" xlink:href="#path-8"></use>
                                <use stroke="#979797" stroke-width="1" xlink:href="#path-8"></use>
                                <use stroke="#979797" stroke-width="1" xlink:href="#path-8"></use>
                            </g>
                            <g id="Stroke-10">
                                <use stroke="#D0D0D0" stroke-width="2" xlink:href="#path-9"></use>
                                <use stroke="#979797" stroke-width="1" xlink:href="#path-9"></use>
                                <use stroke="#979797" stroke-width="1" xlink:href="#path-9"></use>
                            </g>
                            <g id="Stroke-12">
                                <use stroke="#D0D0D0" stroke-width="2" xlink:href="#path-10"></use>
                                <use stroke="#979797" stroke-width="1" xlink:href="#path-10"></use>
                                <use stroke="#979797" stroke-width="1" xlink:href="#path-10"></use>
                            </g>
                            <g id="Stroke-13">
                                <use stroke="#D0D0D0" stroke-width="2" xlink:href="#path-11"></use>
                                <use stroke="#979797" stroke-width="1" xlink:href="#path-11"></use>
                                <use stroke="#979797" stroke-width="1" xlink:href="#path-11"></use>
                            </g>
                            <g id="Stroke-14">
                                <use stroke="#D0D0D0" stroke-width="2" xlink:href="#path-12"></use>
                                <use stroke="#979797" stroke-width="1" xlink:href="#path-12"></use>
                                <use stroke="#979797" stroke-width="1" xlink:href="#path-12"></use>
                            </g>
                            <g id="Stroke-15">
                                <use stroke="#D0D0D0" stroke-width="2" xlink:href="#path-13"></use>
                                <use stroke="#979797" stroke-width="1" xlink:href="#path-13"></use>
                                <use stroke="#979797" stroke-width="1" xlink:href="#path-13"></use>
                            </g>
                            <g id="Stroke-19">
                                <use stroke="#D0D0D0" stroke-width="2" xlink:href="#path-14"></use>
                                <use stroke="#979797" stroke-width="1" xlink:href="#path-14"></use>
                                <use stroke="#979797" stroke-width="1" xlink:href="#path-14"></use>
                            </g>
                            <g id="Stroke-21">
                                <use stroke="#D0D0D0" stroke-width="2" xlink:href="#path-15"></use>
                                <use stroke="#979797" stroke-width="1" xlink:href="#path-15"></use>
                                <use stroke="#979797" stroke-width="1" xlink:href="#path-15"></use>
                            </g>
                            <g id="Stroke-23">
                                <use stroke="#D0D0D0" stroke-width="2" xlink:href="#path-16"></use>
                                <use stroke="#979797" stroke-width="1" xlink:href="#path-16"></use>
                                <use stroke="#979797" stroke-width="1" xlink:href="#path-16"></use>
                            </g>
                            <g id="Stroke-24">
                                <use stroke="#D0D0D0" stroke-width="2" xlink:href="#path-17"></use>
                                <use stroke="#979797" stroke-width="1" xlink:href="#path-17"></use>
                                <use stroke="#979797" stroke-width="1" xlink:href="#path-17"></use>
                            </g>
                            <g id="Stroke-25">
                                <use stroke="#D0D0D0" stroke-width="2" xlink:href="#path-18"></use>
                                <use stroke="#979797" stroke-width="1" xlink:href="#path-18"></use>
                                <use stroke="#979797" stroke-width="1" xlink:href="#path-18"></use>
                            </g>
                            <g id="Stroke-26">
                                <use stroke="#D0D0D0" stroke-width="2" xlink:href="#path-19"></use>
                                <use stroke="#979797" stroke-width="1" xlink:href="#path-19"></use>
                                <use stroke="#979797" stroke-width="1" xlink:href="#path-19"></use>
                            </g>
                            <g id="Stroke-28">
                                <use stroke="#D0D0D0" stroke-width="2" xlink:href="#path-20"></use>
                                <use stroke="#979797" stroke-width="1" xlink:href="#path-20"></use>
                                <use stroke="#979797" stroke-width="1" xlink:href="#path-20"></use>
                            </g>
                            <g id="Stroke-29">
                                <use stroke="#D0D0D0" stroke-width="2" xlink:href="#path-21"></use>
                                <use stroke="#979797" stroke-width="1" xlink:href="#path-21"></use>
                                <use stroke="#979797" stroke-width="1" xlink:href="#path-21"></use>
                            </g>
                            <g id="Stroke-30">
                                <use stroke="#D0D0D0" stroke-width="2" xlink:href="#path-22"></use>
                                <use stroke="#979797" stroke-width="1" xlink:href="#path-22"></use>
                                <use stroke="#979797" stroke-width="1" xlink:href="#path-22"></use>
                            </g>
                            <g id="Stroke-31">
                                <use stroke="#D0D0D0" stroke-width="2" xlink:href="#path-23"></use>
                                <use stroke="#979797" stroke-width="1" xlink:href="#path-23"></use>
                                <use stroke="#979797" stroke-width="1" xlink:href="#path-23"></use>
                            </g>
                            <g id="Stroke-32">
                                <use stroke="#D0D0D0" stroke-width="2" xlink:href="#path-24"></use>
                                <use stroke="#979797" stroke-width="1" xlink:href="#path-24"></use>
                                <use stroke="#979797" stroke-width="1" xlink:href="#path-24"></use>
                            </g>
                        </g>
                        <rect id="Rectangle" fill="url(#linearGradient-25)" style="mix-blend-mode: multiply;" x="0" y="19" width="1441" height="293"></rect>
                    </g>
                </g>
            </g>
        </g>
    </g>
</svg>