<?xml version="1.0" encoding="UTF-8"?>
<svg width="637px" height="637px" viewBox="0 0 637 637" version="1.1" xmlns="http://www.w3.org/2000/svg" xmlns:xlink="http://www.w3.org/1999/xlink">
    <!-- Generator: Sketch 51.3 (57544) - http://www.bohemiancoding.com/sketch -->
    <title>815</title>
    <desc>Created with Sketch.</desc>
    <defs></defs>
    <g id="815" stroke="none" stroke-width="1" fill="none" fill-rule="evenodd" stroke-linecap="round" stroke-linejoin="round">
        <path d="M364.305063,130.48853 L381.137323,136.199602 L383.421754,118.60649 L385.719062,101.008006 L366.601298,112.897567 L347.476023,124.781755 L364.305063,130.48853 Z M328.909785,264.055633 L340.554056,268.003418 L352.201546,271.956576 L353.782085,259.783342 L355.370135,247.60581 L328.909785,264.055633 Z M193.498459,521.82325 L185.609712,545.14785 L197.764735,546.731692 L209.926195,548.321982 L193.498459,521.82325 Z" id="Stroke-3" stroke="#D0D0D0" stroke-width="5"></path>
        <path d="M54.9518074,478.628631 L52.8884151,454.089823 L41.1121644,457.497125 L29.3284025,460.899055 M69.7292585,33.6205743 L58.0849876,29.6727887 L46.4374976,25.7217796 L44.8569585,37.8939393 L43.2689082,50.0725462" id="Stroke-4" stroke="#D0D0D0" stroke-width="5"></path>
        <polygon id="Stroke-5" stroke="#D0D0D0" stroke-width="5" points="536.215792 402.2335 541.30721 385.183021 523.666976 383.532558 506.021378 381.872425 518.578777 400.572293 531.131885 419.282905"></polygon>
        <polygon id="Stroke-6" stroke="#D0D0D0" stroke-width="5" points="324.973995 519.40773 309.252298 511.112437 304.227407 528.125309 299.191785 545.142478 319.938374 536.417377 340.696765 527.69765"></polygon>
        <polygon id="Stroke-7" stroke="#D0D0D0" stroke-width="5" points="60.322207 590.802046 45.3762938 581.174349 38.8996241 597.687568 32.4100784 614.205086 53.8337342 607.310967 75.2681202 600.42437"></polygon>
        <path d="M275.806673,299.271943 C275.806673,308.715897 268.160426,316.370776 258.731914,316.370776 C249.300183,316.370776 241.655009,308.715897 241.655009,299.271943 C241.655009,289.827989 249.300183,282.17311 258.731914,282.17311 C268.160426,282.17311 275.806673,289.827989 275.806673,299.271943 Z" id="Stroke-8" stroke="#D0D0D0" stroke-width="5"></path>
        <path d="M616.7235,587.060568 C616.7235,596.504522 609.078326,604.159401 599.649814,604.159401 C590.219156,604.159401 582.573982,596.504522 582.573982,587.060568 C582.573982,577.616614 590.219156,569.961735 599.649814,569.961735 C609.078326,569.961735 616.7235,577.616614 616.7235,587.060568 Z M491.10229,320.974018 C491.10229,327.180445 486.074179,332.212421 479.87971,332.212421 C473.679876,332.212421 468.654985,327.180445 468.654985,320.974018 C468.654985,314.767592 473.679876,309.734542 479.87971,309.734542 C486.074179,309.734542 491.10229,314.767592 491.10229,320.974018 Z M252.878661,604.160475 C252.878661,610.366901 247.852697,615.398877 241.656082,615.398877 C235.457321,615.398877 230.43243,610.366901 230.43243,604.160475 C230.43243,597.954049 235.457321,592.920998 241.656082,592.920998 C247.852697,592.920998 252.878661,597.954049 252.878661,604.160475 Z" id="Stroke-9" stroke="#D0D0D0" stroke-width="5"></path>
        <path d="M258.731914,466.359764 C258.731914,472.56619 253.704877,477.598166 247.509335,477.598166 C241.309501,477.598166 236.285682,472.56619 236.285682,466.359764 C236.285682,460.152264 241.309501,455.120288 247.509335,455.120288 C253.704877,455.120288 258.731914,460.152264 258.731914,466.359764 Z" id="Stroke-10" stroke="#D0D0D0" stroke-width="5"></path>
        <path d="M275.324893,107.364865 C275.324893,113.571291 270.298928,118.603267 264.102314,118.603267 C257.903553,118.603267 252.878661,113.571291 252.878661,107.364865 C252.878661,101.158439 257.903553,96.1253881 264.102314,96.1253881 C270.298928,96.1253881 275.324893,101.158439 275.324893,107.364865 Z" id="Stroke-11" stroke="#D0D0D0" stroke-width="5"></path>
        <path d="M608.367995,437.543294 C608.367995,443.750794 603.342031,448.781696 597.145416,448.781696 C590.945582,448.781696 585.922837,443.750794 585.922837,437.543294 C585.922837,431.336867 590.945582,426.303817 597.145416,426.303817 C603.342031,426.303817 608.367995,431.336867 608.367995,437.543294 Z M179.496792,20.5264766 C179.496792,26.7329027 174.469755,31.7648787 168.274213,31.7648787 C162.074379,31.7648787 157.050561,26.7329027 157.050561,20.5264766 C157.050561,14.318976 162.074379,9.287 168.274213,9.287 C174.469755,9.287 179.496792,14.318976 179.496792,20.5264766 Z" id="Stroke-12" stroke="#D0D0D0" stroke-width="5"></path>
        <path d="M122.741165,222.286901 C122.741165,228.494402 117.7152,233.525303 111.518585,233.525303 C105.319825,233.525303 100.294933,228.494402 100.294933,222.286901 C100.294933,216.080475 105.319825,211.047424 111.518585,211.047424 C117.7152,211.047424 122.741165,216.080475 122.741165,222.286901 Z" id="Stroke-13" stroke="#D0D0D0" stroke-width="5"></path>
        <path d="M597.145416,95.2980079 C597.145416,101.504434 592.117306,106.53641 585.922837,106.53641 C579.723003,106.53641 574.698112,101.504434 574.698112,95.2980079 C574.698112,89.0905073 579.723003,84.0585313 585.922837,84.0585313 C592.117306,84.0585313 597.145416,89.0905073 597.145416,95.2980079 Z M445.41902,173.59074 C445.41902,179.797167 440.391983,184.829143 434.196441,184.829143 C427.99768,184.829143 422.971716,179.797167 422.971716,173.59074 C422.971716,167.384314 427.99768,162.351264 434.196441,162.351264 C440.391983,162.351264 445.41902,167.384314 445.41902,173.59074 Z M357.076216,386.622877 C357.042953,386.545512 357.02042,386.465997 356.983937,386.388632 C353.133989,377.76776 343.032702,373.90701 334.426113,377.763462 C325.816306,381.618839 321.960992,391.733293 325.810941,400.354165 C325.84635,400.430456 325.890343,400.501374 325.925752,400.577665 L357.076216,386.622877 Z M58.8199973,384.917614 C58.8350194,384.835951 58.8586256,384.755362 58.8736477,384.671549 C60.4380917,375.358687 54.1652934,366.539028 44.8655425,364.973453 C35.5657917,363.406803 26.760697,369.687371 25.1941069,379.000234 C25.1812308,379.082972 25.1790848,379.166785 25.1672817,379.249523 L58.8199973,384.917614 Z M272.537221,27.7225354 C272.522199,27.8041989 272.496447,27.8837133 272.482497,27.9675259 C270.826848,37.2653453 277.013806,46.144102 286.296388,47.8010114 C295.581117,49.4579209 304.447373,43.2654635 306.104096,33.9676441 C306.118045,33.8838316 306.120191,33.8021681 306.13414,33.7183556 L272.537221,27.7225354 Z" id="Stroke-14" stroke="#D0D0D0" stroke-width="5"></path>
        <path d="M402.295946,335.794869 C402.28307,335.712131 402.28307,335.629393 402.270194,335.545581 C400.875285,326.204781 392.181783,319.767333 382.858426,321.164208 C373.529704,322.561084 367.100246,331.26362 368.496228,340.605494 C368.509104,340.689307 368.531638,340.768821 368.544514,340.850485" id="Stroke-15" stroke="#D0D0D0" stroke-width="5"></path>
        <path d="M488.400458,592.558885 C488.391874,592.640549 488.371487,592.722212 488.360757,592.806025 C487.365006,602.198402 494.161432,610.618339 503.537367,611.614419 C512.91652,612.613722 521.324602,605.809863 522.321425,596.41856 C522.330009,596.334748 522.327863,596.250935 522.336448,596.168197" id="Stroke-16" stroke="#D0D0D0" stroke-width="5"></path>
        <path d="M575.146628,43.4631752 C575.173454,43.3847352 575.213155,43.3116679 575.241053,43.2310789 C578.33024,34.3082669 573.610083,24.5666708 564.700906,21.474203 C555.792803,18.3806606 546.063849,23.1031749 542.974662,32.0270615 C542.945691,32.1065759 542.930669,32.1871649 542.903844,32.2666794" id="Stroke-17" stroke="#D0D0D0" stroke-width="5"></path>
        <path d="M167.412588,608.930268 C167.400785,608.84753 167.400785,608.764792 167.387909,608.68098 C165.951153,599.346627 157.230826,592.946787 147.910688,594.385569 C138.59055,595.824351 132.199721,604.555898 133.635404,613.890251 C133.647207,613.974064 133.671886,614.052504 133.684762,614.135242" id="Stroke-18" stroke="#D0D0D0" stroke-width="5"></path>
        <polygon id="Stroke-19" stroke="#D0D0D0" stroke-width="5" points="201.710181 183.299026 233.646086 194.873753 222.086582 226.856834 190.150678 215.283181"></polygon>
        <polygon id="Stroke-20" stroke="#D0D0D0" stroke-width="5" points="358.698602 572.405193 390.633434 583.97992 379.075003 615.963 347.139099 604.389348"></polygon>
        <polygon id="Stroke-21" stroke="#D0D0D0" stroke-width="5" points="572.323547 244.628316 604.258379 256.203042 592.699948 288.186123 560.762971 276.612471"></polygon>
        <polygon id="Stroke-22" stroke="#D0D0D0" stroke-width="5" points="465.664515 51.151364 484.104138 41.1658519 494.075592 59.6314739 475.637041 69.6180604"></polygon>
        <polygon id="Stroke-23" stroke="#D0D0D0" stroke-width="5" points="469.436134 463.859357 488.769572 471.976279 480.663005 491.336976 461.329567 483.220054"></polygon>
        <polygon id="Stroke-24" stroke="#D0D0D0" stroke-width="5" points="231.196411 377.631296 249.637107 367.645784 259.608561 386.111406 241.168937 396.097992"></polygon>
        <path d="M582.937732,346.267139 L601.378428,336.281627 L611.349881,354.748323 L592.911331,364.73491 L582.937732,346.267139 Z M28.5687136,252.739865 L48.0008687,260.616095 L40.1346551,280.075648 L20.7025,272.200492 L28.5687136,252.739865 Z M74.8356984,529.757504 L93.2753221,519.771992 L103.246775,538.237614 L84.8082246,548.2242 L74.8356984,529.757504 Z" id="Stroke-25" stroke="#D0D0D0" stroke-width="5"></path>
        <path d="M121.468579,287.903524 C128.667382,286.119821 130.583772,299.208546 139.768711,296.932714 M91.1872506,295.40797 C98.384981,293.623193 100.303517,306.711918 109.485237,304.436085 M121.468579,287.903524 C114.271921,289.687227 118.668031,302.160252 109.485237,304.436085 M91.1872506,295.40797 C83.9895203,297.190598 88.3899216,309.665773 79.2039095,311.941605 M182.03338,272.894632 C189.231111,271.110929 191.148574,284.19858 200.334586,281.923822 M151.750979,280.398004 C158.949783,278.614301 160.867246,291.703026 170.051112,289.427193 M182.03338,272.894632 C174.83565,274.677261 179.233905,287.15136 170.051112,289.427193 M151.750979,280.398004 C144.554322,282.181706 148.954723,294.656881 139.768711,296.932714" id="Stroke-26" stroke="#D0D0D0" stroke-width="5"></path>
        <path d="M541.958525,142.101939 C547.373991,147.176896 537.455115,155.914891 544.364206,162.389947 M519.180734,120.758753 C524.595127,125.831561 514.680543,134.571705 521.586416,141.043537 M541.958525,142.101939 C536.545205,137.030206 528.493361,147.51537 521.586416,141.043537 M519.180734,120.758753 C513.767414,115.683797 505.717717,126.174333 498.807552,119.701426 M587.515179,184.791534 C592.930645,189.864342 583.013915,198.603411 589.923007,205.079542 M564.739534,163.4462 C570.153927,168.521156 560.237197,177.259151 567.145216,183.733132 M587.515179,184.791534 C582.104005,179.717652 574.052161,190.206039 567.145216,183.733132 M564.739534,163.4462 C559.324069,158.374466 551.274371,168.863928 544.364206,162.389947 M95.1820554,67.1305472 L111.493906,55.6815393 L122.39351,71.9239798 L138.705361,60.4749719 L149.604966,76.7174124 L165.91789,65.2684045 L176.818567,81.510845 L193.129345,70.0618371 L204.028949,86.3032031" id="Stroke-27" stroke="#D0D0D0" stroke-width="5"></path>
        <polyline id="Stroke-28" stroke="#D0D0D0" stroke-width="5" points="347.871963 461.566332 364.182741 450.118398 375.083418 466.359764 391.396342 454.910756 402.295946 471.153197"></polyline>
        <path d="M359.289829,41.1959385 L365.798689,22.3434895 L384.138523,29.0979206 L390.645237,10.2454716 L408.987217,16.9999028 M427.815269,565.490658 L436.357477,547.468813 L453.844271,556.203584 L462.384333,538.182813 L479.871126,546.91651 L488.411188,528.895739 L505.897982,537.63051 L514.438044,519.608665 L531.923764,528.343436" id="Stroke-29" stroke="#D0D0D0" stroke-width="5"></path>
        <path d="M518.45109,212.225098 L510.453969,230.494083 L492.713946,222.286901 L484.715752,240.555886 L466.975729,232.349779 M513.312459,199.039666 L462.457297,218.92258 M33.130066,166.152915 L35.772882,146.381751 L55.0870063,149.357097 L57.7298223,129.585933 L77.0439466,132.560204 M41.7109022,177.399913 L85.0936444,144.213371" id="Stroke-30" stroke="#D0D0D0" stroke-width="5"></path>
        <path d="M164.103435,415.023509 C171.365546,416.518166 167.467312,429.158816 176.735945,431.066089 M133.546344,408.737568 C140.809528,410.231151 136.910221,422.871801 146.177782,424.777999 M164.103435,415.023509 C156.840251,413.529926 155.444269,426.685271 146.177782,424.777999 M133.546344,408.737568 C126.283161,407.242911 124.889325,420.398256 115.620691,418.492058 M112.593738,433.245215 L173.70792,445.820319 M298.835547,194.262351 C291.573436,192.768769 295.47167,180.128119 286.201964,178.219772 M329.392638,200.550441 C322.128381,199.055784 326.026615,186.415134 316.760127,184.507861 M298.835547,194.262351 C306.098731,195.757008 307.494713,182.602738 316.760127,184.507861 M329.392638,200.550441 C336.653675,202.044023 338.047511,188.887604 347.317218,190.795951 M350.343098,176.04172 L289.229989,163.466615" id="Stroke-31" stroke="#D0D0D0" stroke-width="5"></path>
        <path d="M413.538912,412.916375 L453.844271,412.916375 M141.805278,135.634405 L182.109564,135.634405 M131.598837,346.209115 L171.904195,346.209115 M112.52292,478.628631 L144.422342,503.297455 M407.830516,64.3819257 L439.729938,89.0507501 M590.235252,490.849144 L574.786098,528.127458 M425.922485,243.857885 L401.15534,275.701278" id="Stroke-32" stroke="#D0D0D0" stroke-width="5"></path>
    </g>
</svg>