<svg xmlns="http://www.w3.org/2000/svg" width="1366" height="2761.44" viewBox="0 0 1366 2761.44">
  <defs>
    <style>
      .cls-1 {
        fill: none;
        stroke: #5649a4;
        stroke-width: 1px;
        fill-rule: evenodd;
      }
    </style>
  </defs>
  <path id="Kształt_6" dataName="Kształt 6" class="cls-1" d="M924.211,5485.45l-0.422-.9,1479-690,0.42,0.9Zm0-421-0.422-.9,1479-690,0.42,0.9Zm0,802-0.422-.9,1479-690,0.42,0.9Zm0,377-0.422-.9,1479-690,0.42,0.9Zm0,411-0.422-.9,1479-690,0.42,0.9Zm0,402-0.422-.9,1479-690,0.42,0.9ZM954.8,5126.98l0.4-1.96,1545,312-0.4,1.96Zm0,380,0.4-1.96,1545,312-0.4,1.96Zm0,364,0.4-1.96,1545,312-0.4,1.96Zm0,362,0.4-1.96,1545,312-0.4,1.96ZM1471,5611h2v363h-2V5611Zm568-267h2v381h-2V5344Zm66,758h2v363h-2V6102Zm62,373h2v659h-2V6475Z" transform="translate(-1006 -4373.06)"/>
</svg>
